# xmcd
#
# Track frame offsets:
#	150
#	18185
#	34467
#	53730
#	69667
#	85118
#	97903
#	108426
#	124625
#	141913
#	162073
#	169360
#	183085
#	202282
#	222223
#	238186
#	254274
#	272566
#	298447
#
# Disc length: 4229 seconds
#
# Revision: 0
# Processed by: cddbd v1.5.1PL0 Copyright (c) Steve Scherf et al.
# Submitted via: audiograbber 1.83.01
#
DISCID=1b108313
DTITLE=Pepe Lienhard Orchestra - Sounds Great
DYEAR=2005
DGENRE=Big Band
TTITLE0=On Broadway
TTITLE1=Let's Groove
TTITLE2=I'm A Woman
TTITLE3=I've Got You Under My Skin
TTITLE4=Think
TTITLE5=Everybody Need Somebody To Love
TTITLE6=Gimme Some Lovin'
TTITLE7=Fever
TTITLE8=Candy Man - Singin' In The Rain
TTITLE9=I Will Allways Love You
TTITLE10=Soul Bossa Nova
TTITLE11=Move On Up
TTITLE12=Cherish - Joanna
TTITLE13=Celebration - Ladies Night
TTITLE14=Let Me Try Again
TTITLE15=If I Never Sing Another Song
TTITLE16=Moody's Mood
TTITLE17=God Bless The Child
TTITLE18=Joyful Joyful
EXTD=
EXTT0=
EXTT1=
EXTT2=
EXTT3=
EXTT4=
EXTT5=
EXTT6=
EXTT7=
EXTT8=
EXTT9=
EXTT10=
EXTT11=
EXTT12=
EXTT13=
EXTT14=
EXTT15=
EXTT16=
EXTT17=
EXTT18=
PLAYORDER=
